<?xml version="1.0" encoding="UTF-8" standalone="no"?>
<svg
   xmlns:dc="http://purl.org/dc/elements/1.1/"
   xmlns:cc="http://creativecommons.org/ns#"
   xmlns:rdf="http://www.w3.org/1999/02/22-rdf-syntax-ns#"
   xmlns:svg="http://www.w3.org/2000/svg"
   xmlns="http://www.w3.org/2000/svg"
   xmlns:sodipodi="http://sodipodi.sourceforge.net/DTD/sodipodi-0.dtd"
   xmlns:inkscape="http://www.inkscape.org/namespaces/inkscape"
   viewBox="0 0 348 348"
   fill="none"
   version="1.1"
   id="svg6"
   sodipodi:docname="The Close Button.svg"
   inkscape:version="1.0.1 (3bc2e813f5, 2020-09-07)">
  <metadata
     id="metadata12">
    <rdf:RDF>
      <cc:Work
         rdf:about="">
        <dc:format>image/svg+xml</dc:format>
        <dc:type
           rdf:resource="http://purl.org/dc/dcmitype/StillImage" />
      </cc:Work>
    </rdf:RDF>
  </metadata>
  <defs
     id="defs10" />
  <sodipodi:namedview
     pagecolor="#ffffff"
     bordercolor="#666666"
     borderopacity="1"
     objecttolerance="10"
     gridtolerance="10"
     guidetolerance="10"
     inkscape:pageopacity="0"
     inkscape:pageshadow="2"
     inkscape:window-width="1366"
     inkscape:window-height="705"
     id="namedview8"
     showgrid="false"
     inkscape:zoom="1.545977"
     inkscape:cx="257.70052"
     inkscape:cy="174"
     inkscape:window-x="-8"
     inkscape:window-y="-8"
     inkscape:window-maximized="1"
     inkscape:current-layer="svg6" />
  <path
     d="M5.079 5.776h336.913v337.67H5.08z"
     stroke-width="2"
     stroke="#000"
     id="path2" />
  <path
     d="M282.734 40.554c0-8.376 6.966-15.165 15.56-15.165 4.126 0 8.084 1.597 11.001 4.441 2.918 2.844 4.558 6.702 4.558 10.724 0 8.376-6.966 15.165-15.56 15.165-8.593 0-15.559-6.79-15.559-15.165z"
     stroke-width="2"
     stroke="#000"
     id="path4" />
  <path
     id="rect14"
     style="fill:#ffffff;fill-opacity:1;stroke:#000000;stroke-width:2.35433;stop-color:#000000"
     d="M 37.026138,119.08681 H 316.14857 V 224.29728 H 37.026138 Z" />
  <path
     id="rect14-3"
     style="fill:#ffffff;fill-opacity:1;stroke:#000000;stroke-width:1;stroke-miterlimit:4;stroke-dasharray:none;stop-color:#000000"
     d="m 291.48737,119.08681 h 24.66119 V 143.748 h -24.66119 z" />
  <g
     aria-label="X"
     id="text856"
     style="font-size:26.9594px;line-height:1.25;font-family:Calibri;-inkscape-font-specification:Calibri;stroke-width:0.842481">
    <path
       d="m 310.98314,137.78219 q 0.23695,0.46073 0.30277,0.73717 0.079,0.27644 -0.079,0.42124 -0.15796,0.1448 -0.5792,0.18429 -0.40808,0.0395 -1.14525,0.0395 -0.6187,0 -0.97412,-0.0263 -0.35542,-0.0263 -0.56604,-0.079 -0.19746,-0.0658 -0.28961,-0.17113 -0.0921,-0.10531 -0.15796,-0.26328 l -3.1988,-6.14748 -3.18563,6.14748 q -0.079,0.15797 -0.17113,0.26328 -0.0921,0.10531 -0.30276,0.17113 -0.19746,0.0526 -0.56605,0.079 -0.35542,0.0263 -0.94779,0.0263 -0.68451,0 -1.06626,-0.0395 -0.36859,-0.0395 -0.50023,-0.18429 -0.13163,-0.1448 -0.0526,-0.42124 0.079,-0.27644 0.32909,-0.73717 l 4.08077,-7.43753 -3.79116,-6.98996 q -0.23695,-0.4739 -0.3291,-0.75034 -0.079,-0.2896 0.0658,-0.42124 0.15797,-0.1448 0.56604,-0.17113 0.40808,-0.0395 1.15841,-0.0395 0.6187,0 0.97412,0.0263 0.36859,0.0263 0.57921,0.0922 0.21062,0.0526 0.2896,0.15796 0.0922,0.10531 0.17113,0.26328 l 2.98818,5.63409 2.90919,-5.63409 q 0.079,-0.15797 0.15796,-0.26328 0.0922,-0.10531 0.27644,-0.15796 0.19746,-0.0658 0.52655,-0.0922 0.34226,-0.0263 0.93463,-0.0263 0.65819,0 1.03994,0.0395 0.38175,0.0263 0.52655,0.17113 0.1448,0.1448 0.0658,0.42124 -0.0658,0.27644 -0.2896,0.75034 l -3.79117,6.95047 z"
       style="font-weight:bold;fill:#000000;stroke-width:0.842481"
       id="path957" />
  </g>
  <path
     id="rect858"
     style="fill:none;fill-opacity:1;stroke:#000000;stroke-width:1;stroke-miterlimit:4;stroke-dasharray:none;stop-color:#000000"
     d="m 144.8922,194.69888 h 56.27509 v 20.05205 H 144.8922 Z" />
  <g
     aria-label="OK"
     id="text856-2"
     style="font-size:19.6129px;line-height:1.25;font-family:Calibri;-inkscape-font-specification:Calibri;stroke-width:0.612905">
    <path
       d="m 173.48172,204.71502 q 0,1.50352 -0.35433,2.71018 -0.35434,1.20665 -1.06301,2.05897 -0.69909,0.84274 -1.76209,1.30242 -1.06301,0.4501 -2.48034,0.4501 -1.39819,0 -2.42289,-0.4118 -1.01512,-0.42137 -1.68548,-1.21623 -0.66079,-0.79485 -0.98639,-1.97278 -0.32561,-1.17792 -0.32561,-2.71018 0,-1.46522 0.35434,-2.6623 0.35433,-1.19707 1.063,-2.03024 0.70867,-0.84274 1.77168,-1.29284 1.063,-0.45968 2.48034,-0.45968 1.36945,0 2.38457,0.4118 1.01512,0.41179 1.68549,1.20665 0.67994,0.78528 1.00554,1.95363 0.33518,1.15877 0.33518,2.6623 z m -1.73336,0.11492 q 0,-1.05343 -0.19154,-1.95363 -0.18195,-0.90978 -0.62248,-1.57057 -0.43094,-0.67036 -1.15877,-1.04385 -0.72782,-0.37349 -1.8004,-0.37349 -1.07258,0 -1.8004,0.40222 -0.72782,0.40222 -1.1875,1.07258 -0.4501,0.67037 -0.65121,1.57057 -0.19153,0.89062 -0.19153,1.87701 0,1.09174 0.18195,2.01109 0.18196,0.91936 0.61291,1.58972 0.43094,0.66078 1.14919,1.03427 0.72782,0.36391 1.81956,0.36391 1.08215,0 1.81955,-0.40221 0.7374,-0.40222 1.1875,-1.08216 0.4501,-0.68952 0.64163,-1.58972 0.19154,-0.9002 0.19154,-1.90574 z"
       style="font-weight:normal;text-align:center;text-anchor:middle;fill:#000000;stroke-width:0.612905"
       id="path951" />
    <path
       d="m 184.16922,210.78659 q 0,0.0766 -0.0383,0.14365 -0.0287,0.0575 -0.12449,0.0958 -0.0958,0.0383 -0.25857,0.0575 -0.1628,0.0287 -0.42137,0.0287 -0.33518,0 -0.54587,-0.0287 -0.21068,-0.0287 -0.31603,-0.10534 -0.10534,-0.0766 -0.17237,-0.17238 l -4.55847,-6.19607 v 6.19607 q 0,0.067 -0.0383,0.13407 -0.0383,0.0575 -0.13407,0.0958 -0.0958,0.0287 -0.25857,0.0479 -0.15323,0.0287 -0.39264,0.0287 -0.22984,0 -0.39264,-0.0287 -0.1628,-0.0191 -0.25857,-0.0479 -0.0958,-0.0383 -0.13407,-0.0958 -0.0383,-0.067 -0.0383,-0.13407 v -11.89415 q 0,-0.0766 0.0383,-0.13407 0.0383,-0.0575 0.13407,-0.0862 0.0958,-0.0383 0.25857,-0.0575 0.1628,-0.0287 0.39264,-0.0287 0.23941,0 0.39264,0.0287 0.1628,0.0191 0.25857,0.0575 0.0958,0.0287 0.13407,0.0862 0.0383,0.0575 0.0383,0.13407 v 5.50655 l 4.38609,-5.50655 q 0.0575,-0.0862 0.13407,-0.14365 0.0766,-0.0575 0.18195,-0.0862 0.11492,-0.0383 0.26815,-0.0575 0.1628,-0.0191 0.41179,-0.0191 0.249,0 0.40222,0.0287 0.15323,0.0191 0.23942,0.0575 0.0958,0.0383 0.12449,0.0958 0.0383,0.0575 0.0383,0.1245 0,0.1245 -0.067,0.24899 -0.0575,0.1245 -0.22984,0.34476 l -4.10836,4.9128 4.42439,5.88004 q 0.1628,0.24899 0.19153,0.34476 0.0383,0.0862 0.0383,0.14365 z"
       style="font-weight:normal;text-align:center;text-anchor:middle;fill:#000000;stroke-width:0.612905"
       id="path953" />
  </g>
  <g
     aria-label="Click &quot;OK&quot; to give yourself night vision"
     id="text880"
     style="font-size:16px;line-height:1.25;font-family:Calibri;-inkscape-font-specification:Calibri;text-align:center;text-anchor:middle">
    <path
       d="m 61.381897,166.74876 q 0,0.125 -0.0078,0.21875 -0.0078,0.0937 -0.03125,0.16407 -0.01563,0.0703 -0.04687,0.125 -0.03125,0.0547 -0.109375,0.13281 -0.07813,0.0781 -0.328125,0.24219 -0.25,0.15625 -0.625,0.3125 -0.367187,0.14843 -0.851562,0.25 -0.476563,0.10937 -1.046875,0.10937 -0.984375,0 -1.78125,-0.32812 -0.789063,-0.32813 -1.351563,-0.96875 -0.554687,-0.64063 -0.859375,-1.57813 -0.296875,-0.94531 -0.296875,-2.17187 0,-1.25782 0.320313,-2.24219 0.328125,-0.98438 0.914062,-1.66406 0.585938,-0.6875 1.398438,-1.04688 0.820312,-0.35937 1.8125,-0.35937 0.4375,0 0.851562,0.0859 0.414063,0.0781 0.765625,0.20313 0.351563,0.125 0.625,0.28906 0.273438,0.16406 0.375,0.27344 0.109375,0.10156 0.140625,0.15625 0.03125,0.0547 0.04687,0.13281 0.02344,0.0703 0.03125,0.17188 0.01563,0.10156 0.01563,0.24218 0,0.15625 -0.01563,0.26563 -0.01563,0.10937 -0.04687,0.1875 -0.03125,0.0703 -0.07813,0.10937 -0.03906,0.0312 -0.101562,0.0312 -0.109375,0 -0.304688,-0.14843 -0.195312,-0.15625 -0.507812,-0.33594 -0.304688,-0.1875 -0.75,-0.33594 -0.4375,-0.15625 -1.054688,-0.15625 -0.671875,0 -1.226562,0.27344 -0.546875,0.26562 -0.9375,0.78906 -0.390625,0.52344 -0.609375,1.28125 -0.210938,0.75 -0.210938,1.71875 0,0.96094 0.203125,1.70313 0.210938,0.73437 0.59375,1.23437 0.390625,0.49219 0.953125,0.75 0.5625,0.25 1.273438,0.25 0.601562,0 1.046875,-0.14844 0.453125,-0.14843 0.765625,-0.32812 0.320312,-0.1875 0.523437,-0.33594 0.203125,-0.14844 0.320313,-0.14844 0.05469,0 0.09375,0.0234 0.03906,0.0234 0.0625,0.0937 0.02344,0.0625 0.03125,0.17969 0.01563,0.11719 0.01563,0.29687 z"
       style="text-align:center;text-anchor:middle;fill:#1a1a1a"
       id="path882" />
    <path
       d="m 64.303772,167.98314 q 0,0.0625 -0.03125,0.10937 -0.03125,0.0391 -0.101563,0.0703 -0.07031,0.0312 -0.195312,0.0469 -0.125,0.0156 -0.320313,0.0156 -0.1875,0 -0.3125,-0.0156 -0.125,-0.0156 -0.203125,-0.0469 -0.07031,-0.0312 -0.101562,-0.0703 -0.02344,-0.0469 -0.02344,-0.10937 v -10.4375 q 0,-0.0625 0.02344,-0.10938 0.03125,-0.0469 0.101562,-0.0781 0.07813,-0.0312 0.203125,-0.0469 0.125,-0.0156 0.3125,-0.0156 0.195313,0 0.320313,0.0156 0.125,0.0156 0.195312,0.0469 0.07031,0.0312 0.101563,0.0781 0.03125,0.0469 0.03125,0.10938 z"
       style="text-align:center;text-anchor:middle;fill:#1a1a1a"
       id="path884" />
    <path
       d="m 67.975647,167.98314 q 0,0.0625 -0.03125,0.10937 -0.03125,0.0391 -0.101563,0.0703 -0.07031,0.0312 -0.195312,0.0469 -0.125,0.0156 -0.320313,0.0156 -0.1875,0 -0.3125,-0.0156 -0.125,-0.0156 -0.203125,-0.0469 -0.07031,-0.0312 -0.101562,-0.0703 -0.02344,-0.0469 -0.02344,-0.10937 v -7.03125 q 0,-0.0547 0.02344,-0.10156 0.03125,-0.0469 0.101562,-0.0781 0.07813,-0.0312 0.203125,-0.0469 0.125,-0.0156 0.3125,-0.0156 0.195313,0 0.320313,0.0156 0.125,0.0156 0.195312,0.0469 0.07031,0.0312 0.101563,0.0781 0.03125,0.0469 0.03125,0.10156 z m 0.148437,-9.40625 q 0,0.45312 -0.171875,0.61719 -0.171875,0.16406 -0.632812,0.16406 -0.453125,0 -0.625,-0.15625 -0.164063,-0.16406 -0.164063,-0.60938 0,-0.45312 0.171875,-0.61718 0.171875,-0.16407 0.632813,-0.16407 0.453125,0 0.617187,0.16407 0.171875,0.15625 0.171875,0.60156 z"
       style="text-align:center;text-anchor:middle;fill:#1a1a1a"
       id="path886" />
    <path
       d="m 75.413147,166.91283 q 0,0.13281 -0.0078,0.23437 -0.0078,0.0937 -0.03125,0.16406 -0.01563,0.0625 -0.04687,0.11719 -0.02344,0.0469 -0.125,0.14844 -0.09375,0.0937 -0.328125,0.24219 -0.234375,0.14062 -0.53125,0.25781 -0.289062,0.10937 -0.632812,0.17969 -0.34375,0.0703 -0.710938,0.0703 -0.757812,0 -1.34375,-0.25 -0.585937,-0.25 -0.984375,-0.72656 -0.390625,-0.48438 -0.601562,-1.17969 -0.203125,-0.70313 -0.203125,-1.61719 0,-1.03906 0.25,-1.78125 0.257812,-0.75 0.695312,-1.22656 0.445313,-0.47656 1.039063,-0.70313 0.601562,-0.23437 1.296875,-0.23437 0.335937,0 0.648437,0.0625 0.320313,0.0625 0.585938,0.16406 0.265625,0.10156 0.46875,0.23438 0.210937,0.13281 0.304687,0.22656 0.09375,0.0937 0.125,0.14844 0.03906,0.0547 0.0625,0.13281 0.02344,0.0703 0.03125,0.16406 0.0078,0.0937 0.0078,0.23438 0,0.30468 -0.07031,0.42968 -0.07031,0.11719 -0.171875,0.11719 -0.117187,0 -0.273437,-0.125 -0.148438,-0.13281 -0.382813,-0.28906 -0.234375,-0.15625 -0.570312,-0.28125 -0.328125,-0.13281 -0.78125,-0.13281 -0.929688,0 -1.429688,0.71875 -0.492187,0.71093 -0.492187,2.07031 0,0.67969 0.125,1.19531 0.132812,0.50781 0.382812,0.85156 0.25,0.34375 0.609375,0.51563 0.367188,0.16406 0.835938,0.16406 0.445312,0 0.78125,-0.14062 0.335937,-0.14063 0.578125,-0.30469 0.25,-0.17188 0.414062,-0.30469 0.171875,-0.14062 0.265625,-0.14062 0.05469,0 0.09375,0.0312 0.03906,0.0312 0.0625,0.10937 0.03125,0.0703 0.03906,0.1875 0.01563,0.10938 0.01563,0.26563 z"
       style="text-align:center;text-anchor:middle;fill:#1a1a1a"
       id="path888" />
    <path
       d="m 82.897522,167.97533 q 0,0.0625 -0.03125,0.10937 -0.03125,0.0469 -0.109375,0.0781 -0.07031,0.0312 -0.203125,0.0469 -0.132813,0.0156 -0.335938,0.0156 -0.210937,0 -0.351562,-0.0156 -0.132813,-0.008 -0.226563,-0.0312 -0.09375,-0.0312 -0.15625,-0.0781 -0.05469,-0.0547 -0.101562,-0.125 l -2.96875,-3.89063 v 3.89844 q 0,0.0625 -0.03125,0.10937 -0.03125,0.0391 -0.101563,0.0703 -0.07031,0.0312 -0.195312,0.0469 -0.125,0.0156 -0.320313,0.0156 -0.1875,0 -0.3125,-0.0156 -0.125,-0.0156 -0.203125,-0.0469 -0.07031,-0.0312 -0.101562,-0.0703 -0.02344,-0.0469 -0.02344,-0.10937 v -10.4375 q 0,-0.0625 0.02344,-0.10938 0.03125,-0.0469 0.101562,-0.0781 0.07813,-0.0312 0.203125,-0.0469 0.125,-0.0156 0.3125,-0.0156 0.195313,0 0.320313,0.0156 0.125,0.0156 0.195312,0.0469 0.07031,0.0312 0.101563,0.0781 0.03125,0.0469 0.03125,0.10938 v 6.35937 l 2.65625,-2.92187 q 0.0625,-0.0781 0.132812,-0.125 0.07031,-0.0547 0.164063,-0.0859 0.101562,-0.0391 0.234375,-0.0469 0.132812,-0.0156 0.320312,-0.0156 0.195313,0 0.328125,0.0156 0.132813,0.008 0.210938,0.0391 0.08594,0.0234 0.117187,0.0703 0.03906,0.0391 0.03906,0.10938 0,0.0937 -0.05469,0.1875 -0.04687,0.0937 -0.164062,0.21875 l -2.546875,2.54687 2.859375,3.71094 q 0.101562,0.13281 0.140625,0.21875 0.04687,0.0781 0.04687,0.14844 z"
       style="text-align:center;text-anchor:middle;fill:#1a1a1a"
       id="path890" />
    <path
       d="m 91.842834,161.13158 q 0,0.0625 -0.02344,0.10937 -0.02344,0.0469 -0.08594,0.0781 -0.0625,0.0312 -0.15625,0.0469 -0.08594,0.0156 -0.226562,0.0156 -0.140625,0 -0.234375,-0.0156 -0.09375,-0.0156 -0.15625,-0.0469 -0.05469,-0.0312 -0.07813,-0.0781 -0.02344,-0.0469 -0.02344,-0.10937 l -0.179687,-3.61719 q 0,-0.0625 0.03906,-0.10938 0.03906,-0.0469 0.117188,-0.0781 0.07813,-0.0312 0.203125,-0.0469 0.132812,-0.0156 0.3125,-0.0156 0.1875,0 0.3125,0.0156 0.132812,0.0156 0.210937,0.0469 0.07813,0.0312 0.109375,0.0781 0.03906,0.0469 0.03125,0.10938 z m -2.773437,0 q 0,0.0625 -0.02344,0.10937 -0.02344,0.0469 -0.08594,0.0781 -0.0625,0.0312 -0.15625,0.0469 -0.08594,0.0156 -0.226563,0.0156 -0.140625,0 -0.234375,-0.0156 -0.09375,-0.0156 -0.15625,-0.0469 -0.05469,-0.0312 -0.07813,-0.0781 -0.02344,-0.0469 -0.02344,-0.10937 l -0.179688,-3.61719 q 0,-0.0625 0.03906,-0.10938 0.03906,-0.0469 0.117187,-0.0781 0.07813,-0.0312 0.203125,-0.0469 0.132813,-0.0156 0.3125,-0.0156 0.375,0 0.523438,0.0625 0.148437,0.0625 0.148437,0.1875 z"
       style="text-align:center;text-anchor:middle;fill:#1a1a1a"
       id="path892" />
    <path
       d="m 103.04596,163.00658 q 0,1.22656 -0.28906,2.21093 -0.28907,0.98438 -0.86719,1.67969 -0.57031,0.6875 -1.4375,1.0625 -0.867188,0.36719 -2.023438,0.36719 -1.140625,0 -1.976563,-0.33594 -0.828125,-0.34375 -1.375,-0.99219 -0.539062,-0.64843 -0.804687,-1.60937 -0.265625,-0.96094 -0.265625,-2.21094 0,-1.19531 0.289062,-2.17187 0.289063,-0.97657 0.867188,-1.65625 0.578125,-0.6875 1.445312,-1.05469 0.867188,-0.375 2.023438,-0.375 1.117187,0 1.945313,0.33594 0.82812,0.33593 1.375,0.98437 0.55469,0.64063 0.82031,1.59375 0.27344,0.94531 0.27344,2.17188 z m -1.41406,0.0937 q 0,-0.85938 -0.15625,-1.59375 -0.14844,-0.74219 -0.50782,-1.28125 -0.35156,-0.54688 -0.94531,-0.85157 -0.593748,-0.30468 -1.468748,-0.30468 -0.875,0 -1.46875,0.32812 -0.59375,0.32813 -0.96875,0.875 -0.367188,0.54688 -0.53125,1.28125 -0.15625,0.72656 -0.15625,1.53125 0,0.89063 0.148437,1.64063 0.148438,0.75 0.5,1.29687 0.351563,0.53906 0.9375,0.84375 0.59375,0.29688 1.484375,0.29688 0.882813,0 1.484375,-0.32813 0.601561,-0.32812 0.968751,-0.88281 0.36719,-0.5625 0.52344,-1.29688 0.15625,-0.73437 0.15625,-1.55468 z"
       style="text-align:center;text-anchor:middle;fill:#1a1a1a"
       id="path894" />
    <path
       d="m 111.76471,167.9597 q 0,0.0625 -0.0312,0.11719 -0.0234,0.0469 -0.10156,0.0781 -0.0781,0.0312 -0.21094,0.0469 -0.13281,0.0234 -0.34375,0.0234 -0.27344,0 -0.44531,-0.0234 -0.17188,-0.0234 -0.25782,-0.0859 -0.0859,-0.0625 -0.14062,-0.14062 l -3.71875,-5.05469 v 5.05469 q 0,0.0547 -0.0312,0.10937 -0.0312,0.0469 -0.10938,0.0781 -0.0781,0.0234 -0.21093,0.0391 -0.125,0.0234 -0.32032,0.0234 -0.1875,0 -0.32031,-0.0234 -0.13281,-0.0156 -0.21094,-0.0391 -0.0781,-0.0312 -0.10937,-0.0781 -0.0312,-0.0547 -0.0312,-0.10937 v -9.70313 q 0,-0.0625 0.0312,-0.10937 0.0312,-0.0469 0.10937,-0.0703 0.0781,-0.0312 0.21094,-0.0469 0.13281,-0.0234 0.32031,-0.0234 0.19532,0 0.32032,0.0234 0.13281,0.0156 0.21093,0.0469 0.0781,0.0234 0.10938,0.0703 0.0312,0.0469 0.0312,0.10937 v 4.49219 l 3.57812,-4.49219 q 0.0469,-0.0703 0.10938,-0.11719 0.0625,-0.0469 0.14844,-0.0703 0.0937,-0.0312 0.21875,-0.0469 0.13281,-0.0156 0.33593,-0.0156 0.20313,0 0.32813,0.0234 0.125,0.0156 0.19531,0.0469 0.0781,0.0312 0.10156,0.0781 0.0312,0.0469 0.0312,0.10156 0,0.10156 -0.0547,0.20313 -0.0469,0.10156 -0.1875,0.28125 l -3.35157,4.00781 3.60938,4.79687 q 0.13281,0.20313 0.15625,0.28125 0.0312,0.0703 0.0312,0.11719 z"
       style="text-align:center;text-anchor:middle;fill:#1a1a1a"
       id="path896" />
    <path
       d="m 117.16315,161.13158 q 0,0.0625 -0.0234,0.10937 -0.0234,0.0469 -0.0859,0.0781 -0.0625,0.0312 -0.15625,0.0469 -0.0859,0.0156 -0.22656,0.0156 -0.14063,0 -0.23438,-0.0156 -0.0937,-0.0156 -0.15625,-0.0469 -0.0547,-0.0312 -0.0781,-0.0781 -0.0234,-0.0469 -0.0234,-0.10937 l -0.17969,-3.61719 q 0,-0.0625 0.0391,-0.10938 0.0391,-0.0469 0.11718,-0.0781 0.0781,-0.0312 0.20313,-0.0469 0.13281,-0.0156 0.3125,-0.0156 0.1875,0 0.3125,0.0156 0.13281,0.0156 0.21094,0.0469 0.0781,0.0312 0.10937,0.0781 0.0391,0.0469 0.0312,0.10938 z m -2.77344,0 q 0,0.0625 -0.0234,0.10937 -0.0234,0.0469 -0.0859,0.0781 -0.0625,0.0312 -0.15625,0.0469 -0.0859,0.0156 -0.22656,0.0156 -0.14062,0 -0.23437,-0.0156 -0.0937,-0.0156 -0.15625,-0.0469 -0.0547,-0.0312 -0.0781,-0.0781 -0.0234,-0.0469 -0.0234,-0.10937 l -0.17968,-3.61719 q 0,-0.0625 0.0391,-0.10938 0.0391,-0.0469 0.11719,-0.0781 0.0781,-0.0312 0.20312,-0.0469 0.13281,-0.0156 0.3125,-0.0156 0.375,0 0.52344,0.0625 0.14844,0.0625 0.14844,0.1875 z"
       style="text-align:center;text-anchor:middle;fill:#1a1a1a"
       id="path898" />
    <path
       d="m 127.02252,167.46751 q 0,0.22657 -0.0312,0.35938 -0.0312,0.13281 -0.0937,0.19531 -0.0625,0.0625 -0.1875,0.11719 -0.125,0.0547 -0.28906,0.0859 -0.15625,0.0391 -0.33594,0.0625 -0.17969,0.0234 -0.35937,0.0234 -0.54688,0 -0.9375,-0.14062 -0.39063,-0.14844 -0.64063,-0.4375 -0.25,-0.29688 -0.36719,-0.74219 -0.10937,-0.45312 -0.10937,-1.0625 v -4.10937 h -0.98438 q -0.11718,0 -0.1875,-0.125 -0.0703,-0.125 -0.0703,-0.40625 0,-0.14844 0.0156,-0.25 0.0234,-0.10157 0.0547,-0.16407 0.0312,-0.0703 0.0781,-0.0937 0.0547,-0.0312 0.11719,-0.0312 h 0.97656 v -1.67187 q 0,-0.0547 0.0234,-0.10156 0.0312,-0.0469 0.10156,-0.0781 0.0781,-0.0391 0.20312,-0.0547 0.125,-0.0156 0.3125,-0.0156 0.19532,0 0.32032,0.0156 0.125,0.0156 0.19531,0.0547 0.0703,0.0312 0.10156,0.0781 0.0312,0.0469 0.0312,0.10156 v 1.67187 h 1.80469 q 0.0625,0 0.10937,0.0312 0.0469,0.0234 0.0781,0.0937 0.0391,0.0625 0.0547,0.16407 0.0156,0.10156 0.0156,0.25 0,0.28125 -0.0703,0.40625 -0.0703,0.125 -0.1875,0.125 h -1.80469 v 3.92187 q 0,0.72656 0.21094,1.10156 0.21875,0.36719 0.77344,0.36719 0.17968,0 0.32031,-0.0312 0.14062,-0.0391 0.25,-0.0781 0.10937,-0.0391 0.1875,-0.0703 0.0781,-0.0391 0.14062,-0.0391 0.0391,0 0.0703,0.0234 0.0391,0.0156 0.0547,0.0703 0.0234,0.0547 0.0391,0.14844 0.0156,0.0937 0.0156,0.23437 z"
       style="text-align:center;text-anchor:middle;fill:#1a1a1a"
       id="path900" />
    <path
       d="m 135.10846,164.38939 q 0,0.85937 -0.22656,1.58594 -0.22657,0.71875 -0.67969,1.24218 -0.44531,0.52344 -1.125,0.82032 -0.67188,0.28906 -1.5625,0.28906 -0.86719,0 -1.51563,-0.25781 -0.64062,-0.25782 -1.07031,-0.75 -0.42969,-0.49219 -0.64062,-1.19532 -0.21094,-0.70312 -0.21094,-1.59375 0,-0.85937 0.21875,-1.57812 0.22656,-0.72656 0.67187,-1.25 0.45313,-0.52344 1.125,-0.8125 0.67188,-0.28906 1.57032,-0.28906 0.86718,0 1.50781,0.25781 0.64844,0.25781 1.07812,0.75 0.42969,0.49219 0.64063,1.19531 0.21875,0.70313 0.21875,1.58594 z m -1.35938,0.0859 q 0,-0.57032 -0.10937,-1.07813 -0.10156,-0.50781 -0.34375,-0.89062 -0.24219,-0.38282 -0.65625,-0.60157 -0.41406,-0.22656 -1.03125,-0.22656 -0.57031,0 -0.98438,0.20313 -0.40625,0.20312 -0.67187,0.57812 -0.26563,0.36719 -0.39844,0.875 -0.125,0.50781 -0.125,1.10938 0,0.57812 0.10156,1.08593 0.10938,0.50782 0.35157,0.89063 0.25,0.375 0.66406,0.60156 0.41406,0.21875 1.03125,0.21875 0.5625,0 0.97656,-0.20312 0.41406,-0.20313 0.67969,-0.57032 0.26562,-0.36718 0.39062,-0.875 0.125,-0.50781 0.125,-1.11718 z"
       style="text-align:center;text-anchor:middle;fill:#1a1a1a"
       id="path902" />
    <path
       d="m 146.49908,161.2722 q 0,0.27344 -0.0781,0.39844 -0.0703,0.11719 -0.1875,0.11719 h -1.00781 q 0.27343,0.28125 0.38281,0.625 0.10937,0.33593 0.10937,0.70312 0,0.60938 -0.19531,1.07813 -0.19531,0.46875 -0.5625,0.79687 -0.35937,0.32031 -0.85937,0.49219 -0.5,0.17187 -1.10938,0.17187 -0.42969,0 -0.82031,-0.10937 -0.38281,-0.11719 -0.59375,-0.28906 -0.14063,0.14062 -0.23438,0.32031 -0.0859,0.17969 -0.0859,0.41406 0,0.27344 0.25,0.45313 0.25781,0.17968 0.67968,0.19531 l 1.83594,0.0781 q 0.52344,0.0156 0.96094,0.14844 0.4375,0.125 0.75781,0.36719 0.32031,0.23437 0.5,0.58594 0.17969,0.34375 0.17969,0.80468 0,0.48438 -0.20313,0.92188 -0.20312,0.4375 -0.625,0.76562 -0.41406,0.33594 -1.0625,0.52344 -0.64843,0.19531 -1.53125,0.19531 -0.85156,0 -1.45312,-0.14843 -0.59375,-0.14063 -0.97656,-0.39063 -0.38282,-0.25 -0.55469,-0.60156 -0.17188,-0.34375 -0.17188,-0.75 0,-0.25781 0.0625,-0.5 0.0625,-0.24219 0.1875,-0.46094 0.13282,-0.21875 0.32032,-0.41406 0.19531,-0.20313 0.44531,-0.39844 -0.38281,-0.19531 -0.57031,-0.49219 -0.17969,-0.29687 -0.17969,-0.64062 0,-0.47656 0.19531,-0.85156 0.19531,-0.375 0.48438,-0.67188 -0.24219,-0.28906 -0.38282,-0.64844 -0.14062,-0.36718 -0.14062,-0.88281 0,-0.60156 0.20312,-1.07812 0.20313,-0.47657 0.5625,-0.80469 0.35938,-0.32813 0.85938,-0.5 0.50781,-0.17969 1.10156,-0.17969 0.32031,0 0.59375,0.0391 0.28125,0.0312 0.52344,0.0937 h 2.125 q 0.13281,0 0.19531,0.13282 0.0703,0.125 0.0703,0.39062 z m -2.01562,1.85156 q 0,-0.71875 -0.39844,-1.11718 -0.39062,-0.40625 -1.11719,-0.40625 -0.375,0 -0.65625,0.125 -0.27343,0.125 -0.46093,0.34375 -0.17969,0.21875 -0.27344,0.50781 -0.0859,0.28125 -0.0859,0.59375 0,0.69531 0.39063,1.09375 0.39843,0.39844 1.10937,0.39844 0.38281,0 0.66406,-0.11719 0.28125,-0.125 0.46094,-0.33594 0.1875,-0.21875 0.27344,-0.5 0.0937,-0.28125 0.0937,-0.58594 z m 0.64844,5.57032 q 0,-0.45313 -0.375,-0.69532 -0.36719,-0.25 -1,-0.26562 l -1.82032,-0.0625 q -0.25,0.19531 -0.41406,0.375 -0.15625,0.17187 -0.25,0.32812 -0.0937,0.16407 -0.13281,0.32032 -0.0312,0.15625 -0.0312,0.32031 0,0.50781 0.51562,0.76562 0.51563,0.26563 1.4375,0.26563 0.58594,0 0.97657,-0.11719 0.39843,-0.10937 0.64062,-0.29687 0.24219,-0.1875 0.34375,-0.42969 0.10938,-0.24219 0.10938,-0.50781 z"
       style="text-align:center;text-anchor:middle;fill:#1a1a1a"
       id="path904" />
    <path
       d="m 149.4444,167.98314 q 0,0.0625 -0.0312,0.10937 -0.0312,0.0391 -0.10157,0.0703 -0.0703,0.0312 -0.19531,0.0469 -0.125,0.0156 -0.32031,0.0156 -0.1875,0 -0.3125,-0.0156 -0.125,-0.0156 -0.20313,-0.0469 -0.0703,-0.0312 -0.10156,-0.0703 -0.0234,-0.0469 -0.0234,-0.10937 v -7.03125 q 0,-0.0547 0.0234,-0.10156 0.0312,-0.0469 0.10156,-0.0781 0.0781,-0.0312 0.20313,-0.0469 0.125,-0.0156 0.3125,-0.0156 0.19531,0 0.32031,0.0156 0.125,0.0156 0.19531,0.0469 0.0703,0.0312 0.10157,0.0781 0.0312,0.0469 0.0312,0.10156 z m 0.14843,-9.40625 q 0,0.45312 -0.17187,0.61719 -0.17188,0.16406 -0.63281,0.16406 -0.45313,0 -0.625,-0.15625 -0.16407,-0.16406 -0.16407,-0.60938 0,-0.45312 0.17188,-0.61718 0.17187,-0.16407 0.63281,-0.16407 0.45313,0 0.61719,0.16407 0.17187,0.15625 0.17187,0.60156 z"
       style="text-align:center;text-anchor:middle;fill:#1a1a1a"
       id="path906" />
    <path
       d="m 157.59283,160.93626 q 0,0.0312 -0.008,0.0703 0,0.0312 -0.008,0.0703 -0.008,0.0391 -0.0234,0.0859 -0.008,0.0469 -0.0234,0.10156 l -2.39843,6.67969 q -0.0312,0.0859 -0.0859,0.14062 -0.0469,0.0547 -0.14844,0.0859 -0.10156,0.0312 -0.25781,0.0391 -0.15625,0.0156 -0.39063,0.0156 -0.23437,0 -0.39062,-0.0156 -0.15625,-0.0156 -0.25781,-0.0469 -0.0937,-0.0312 -0.14844,-0.0859 -0.0547,-0.0547 -0.0859,-0.13281 l -2.39062,-6.67969 q -0.0312,-0.0937 -0.0547,-0.16406 -0.0156,-0.0703 -0.0234,-0.10157 0,-0.0391 0,-0.0625 0,-0.0625 0.0312,-0.10937 0.0312,-0.0469 0.10156,-0.0703 0.0781,-0.0312 0.19532,-0.0391 0.125,-0.008 0.30468,-0.008 0.22657,0 0.35938,0.0156 0.14062,0.008 0.21094,0.0391 0.0781,0.0312 0.10937,0.0781 0.0391,0.0469 0.0703,0.11719 l 1.98438,5.79688 0.0312,0.0937 0.0234,-0.0937 1.96093,-5.79688 q 0.0156,-0.0703 0.0547,-0.11719 0.0391,-0.0469 0.10938,-0.0781 0.0781,-0.0312 0.20312,-0.0391 0.13281,-0.0156 0.34375,-0.0156 0.17969,0 0.29688,0.008 0.11718,0.008 0.17968,0.0391 0.0703,0.0312 0.0937,0.0781 0.0312,0.0391 0.0312,0.10156 z"
       style="text-align:center;text-anchor:middle;fill:#1a1a1a"
       id="path908" />
    <path
       d="m 164.89752,164.16283 q 0,0.30468 -0.15625,0.4375 -0.14844,0.125 -0.34375,0.125 h -4.60937 q 0,0.58593 0.11718,1.05468 0.11719,0.46875 0.39063,0.80469 0.27344,0.33594 0.71094,0.51563 0.4375,0.17968 1.07031,0.17968 0.5,0 0.89062,-0.0781 0.39063,-0.0859 0.67188,-0.1875 0.28906,-0.10156 0.46875,-0.17969 0.1875,-0.0859 0.28125,-0.0859 0.0547,0 0.0937,0.0312 0.0469,0.0234 0.0703,0.0781 0.0234,0.0547 0.0312,0.15625 0.0156,0.0937 0.0156,0.23437 0,0.10157 -0.008,0.17969 -0.008,0.0703 -0.0234,0.13281 -0.008,0.0547 -0.0391,0.10157 -0.0234,0.0469 -0.0703,0.0937 -0.0391,0.0391 -0.25,0.14062 -0.21094,0.0937 -0.54687,0.1875 -0.33594,0.0937 -0.78125,0.16406 -0.4375,0.0781 -0.9375,0.0781 -0.86719,0 -1.52344,-0.24219 -0.64844,-0.24219 -1.09375,-0.71875 -0.44531,-0.47656 -0.67188,-1.19531 -0.22656,-0.71875 -0.22656,-1.67188 0,-0.90625 0.23438,-1.625 0.23437,-0.72656 0.67187,-1.22656 0.44531,-0.50781 1.07031,-0.77344 0.625,-0.27343 1.39844,-0.27343 0.82813,0 1.40625,0.26562 0.58594,0.26563 0.96094,0.71875 0.375,0.44531 0.54687,1.05469 0.17969,0.60156 0.17969,1.28906 z m -1.29687,-0.38282 q 0.0234,-1.01562 -0.45313,-1.59375 -0.46875,-0.57812 -1.39844,-0.57812 -0.47656,0 -0.83593,0.17969 -0.35938,0.17968 -0.60157,0.47656 -0.24218,0.29687 -0.375,0.69531 -0.13281,0.39063 -0.14843,0.82031 z"
       style="text-align:center;text-anchor:middle;fill:#1a1a1a"
       id="path910" />
    <path
       d="m 173.67877,168.17845 -0.9375,2.58594 q -0.0469,0.125 -0.24219,0.1875 -0.1875,0.0703 -0.57812,0.0703 -0.20313,0 -0.32813,-0.0234 -0.125,-0.0156 -0.19531,-0.0625 -0.0625,-0.0469 -0.0703,-0.125 -0.008,-0.0781 0.0391,-0.1875 l 0.96875,-2.44531 q -0.0703,-0.0312 -0.13281,-0.10156 -0.0625,-0.0703 -0.0859,-0.14844 l -2.50781,-6.71875 q -0.0625,-0.16406 -0.0625,-0.25781 0,-0.0937 0.0625,-0.14844 0.0625,-0.0547 0.20312,-0.0703 0.14063,-0.0234 0.375,-0.0234 0.23438,0 0.36719,0.0156 0.13281,0.008 0.21094,0.0391 0.0781,0.0312 0.10937,0.0937 0.0391,0.0547 0.0781,0.15625 l 2.00781,5.64062 h 0.0234 l 1.9375,-5.67187 q 0.0469,-0.14844 0.10937,-0.1875 0.0703,-0.0469 0.20313,-0.0625 0.13281,-0.0234 0.38281,-0.0234 0.21875,0 0.35938,0.0234 0.14062,0.0156 0.20312,0.0703 0.0703,0.0547 0.0703,0.14844 0,0.0937 -0.0469,0.23437 z"
       style="text-align:center;text-anchor:middle;fill:#1a1a1a"
       id="path912" />
    <path
       d="m 184.0694,164.38939 q 0,0.85937 -0.22657,1.58594 -0.22656,0.71875 -0.67968,1.24218 -0.44532,0.52344 -1.125,0.82032 -0.67188,0.28906 -1.5625,0.28906 -0.86719,0 -1.51563,-0.25781 -0.64062,-0.25782 -1.07031,-0.75 -0.42969,-0.49219 -0.64063,-1.19532 -0.21093,-0.70312 -0.21093,-1.59375 0,-0.85937 0.21875,-1.57812 0.22656,-0.72656 0.67187,-1.25 0.45313,-0.52344 1.125,-0.8125 0.67188,-0.28906 1.57031,-0.28906 0.86719,0 1.50782,0.25781 0.64843,0.25781 1.07812,0.75 0.42969,0.49219 0.64063,1.19531 0.21875,0.70313 0.21875,1.58594 z m -1.35938,0.0859 q 0,-0.57032 -0.10937,-1.07813 -0.10157,-0.50781 -0.34375,-0.89062 -0.24219,-0.38282 -0.65625,-0.60157 -0.41407,-0.22656 -1.03125,-0.22656 -0.57032,0 -0.98438,0.20313 -0.40625,0.20312 -0.67187,0.57812 -0.26563,0.36719 -0.39844,0.875 -0.125,0.50781 -0.125,1.10938 0,0.57812 0.10156,1.08593 0.10938,0.50782 0.35156,0.89063 0.25,0.375 0.66407,0.60156 0.41406,0.21875 1.03125,0.21875 0.5625,0 0.97656,-0.20312 0.41406,-0.20313 0.67969,-0.57032 0.26562,-0.36718 0.39062,-0.875 0.125,-0.50781 0.125,-1.11718 z"
       style="text-align:center;text-anchor:middle;fill:#1a1a1a"
       id="path914" />
    <path
       d="m 191.99127,167.98314 q 0,0.0625 -0.0312,0.10937 -0.0234,0.0391 -0.0937,0.0703 -0.0703,0.0312 -0.1875,0.0469 -0.10937,0.0156 -0.27344,0.0156 -0.17968,0 -0.29687,-0.0156 -0.10938,-0.0156 -0.17969,-0.0469 -0.0625,-0.0312 -0.0859,-0.0703 -0.0234,-0.0469 -0.0234,-0.10937 v -0.92969 q -0.60157,0.66406 -1.1875,0.96875 -0.58594,0.30469 -1.1875,0.30469 -0.70313,0 -1.1875,-0.23438 -0.47657,-0.23437 -0.77344,-0.63281 -0.29688,-0.40625 -0.42969,-0.9375 -0.125,-0.53906 -0.125,-1.30469 v -4.26562 q 0,-0.0625 0.0234,-0.10156 0.0312,-0.0469 0.10937,-0.0781 0.0781,-0.0391 0.20313,-0.0469 0.125,-0.0156 0.3125,-0.0156 0.1875,0 0.3125,0.0156 0.125,0.008 0.19531,0.0469 0.0781,0.0312 0.10938,0.0781 0.0312,0.0391 0.0312,0.10156 v 4.09375 q 0,0.61719 0.0859,0.99219 0.0937,0.36718 0.27344,0.63281 0.1875,0.25781 0.46875,0.40625 0.28125,0.14062 0.65625,0.14062 0.48438,0 0.96094,-0.34375 0.48437,-0.34375 1.02344,-1.00781 v -4.91406 q 0,-0.0625 0.0234,-0.10156 0.0312,-0.0469 0.10938,-0.0781 0.0781,-0.0391 0.19531,-0.0469 0.125,-0.0156 0.32031,-0.0156 0.1875,0 0.3125,0.0156 0.125,0.008 0.19532,0.0469 0.0703,0.0312 0.10156,0.0781 0.0391,0.0391 0.0391,0.10156 z"
       style="text-align:center;text-anchor:middle;fill:#1a1a1a"
       id="path916" />
    <path
       d="m 198.48346,161.41283 q 0,0.17187 -0.008,0.28906 -0.008,0.11719 -0.0312,0.1875 -0.0234,0.0625 -0.0625,0.10156 -0.0312,0.0312 -0.0937,0.0312 -0.0625,0 -0.15625,-0.0312 -0.0859,-0.0391 -0.20313,-0.0703 -0.10937,-0.0391 -0.25,-0.0703 -0.14062,-0.0312 -0.30469,-0.0312 -0.19531,0 -0.38281,0.0781 -0.1875,0.0781 -0.39844,0.25781 -0.20312,0.17969 -0.42968,0.47657 -0.22657,0.29687 -0.5,0.72656 v 4.625 q 0,0.0625 -0.0312,0.10937 -0.0312,0.0391 -0.10157,0.0703 -0.0703,0.0312 -0.19531,0.0469 -0.125,0.0156 -0.32031,0.0156 -0.1875,0 -0.3125,-0.0156 -0.125,-0.0156 -0.20313,-0.0469 -0.0703,-0.0312 -0.10156,-0.0703 -0.0234,-0.0469 -0.0234,-0.10937 v -7.03125 q 0,-0.0625 0.0234,-0.10156 0.0234,-0.0469 0.0937,-0.0781 0.0703,-0.0391 0.17969,-0.0469 0.10937,-0.0156 0.28906,-0.0156 0.17188,0 0.28125,0.0156 0.11719,0.008 0.17969,0.0469 0.0625,0.0312 0.0859,0.0781 0.0312,0.0391 0.0312,0.10156 v 1.02344 q 0.28906,-0.42188 0.53906,-0.6875 0.25781,-0.26563 0.48437,-0.41407 0.22657,-0.15625 0.44532,-0.21093 0.22656,-0.0625 0.45312,-0.0625 0.10156,0 0.22656,0.0156 0.13282,0.008 0.27344,0.0391 0.14063,0.0312 0.25,0.0703 0.11719,0.0391 0.16406,0.0781 0.0469,0.0391 0.0625,0.0781 0.0156,0.0312 0.0234,0.0859 0.0156,0.0547 0.0156,0.16407 0.008,0.10156 0.008,0.28125 z"
       style="text-align:center;text-anchor:middle;fill:#1a1a1a"
       id="path918" />
    <path
       d="m 204.09283,166.06908 q 0,0.53906 -0.20312,0.96093 -0.19531,0.42188 -0.5625,0.71094 -0.36719,0.28906 -0.875,0.4375 -0.50781,0.14844 -1.11719,0.14844 -0.375,0 -0.71875,-0.0625 -0.33594,-0.0547 -0.60937,-0.14063 -0.26563,-0.0937 -0.45313,-0.1875 -0.1875,-0.10156 -0.27344,-0.17968 -0.0859,-0.0781 -0.125,-0.21875 -0.0391,-0.14063 -0.0391,-0.38282 0,-0.14843 0.0156,-0.25 0.0156,-0.10156 0.0391,-0.16406 0.0234,-0.0625 0.0625,-0.0859 0.0469,-0.0312 0.10156,-0.0312 0.0859,0 0.25,0.10938 0.17188,0.10156 0.41406,0.22656 0.25,0.125 0.58594,0.23438 0.33594,0.10156 0.77344,0.10156 0.32812,0 0.59375,-0.0703 0.26562,-0.0703 0.46094,-0.20313 0.19531,-0.14062 0.29687,-0.35156 0.10938,-0.21094 0.10938,-0.5 0,-0.29688 -0.15625,-0.5 -0.14844,-0.20313 -0.39844,-0.35938 -0.25,-0.15625 -0.5625,-0.27343 -0.3125,-0.125 -0.64844,-0.25782 -0.32812,-0.13281 -0.64844,-0.29687 -0.3125,-0.17188 -0.5625,-0.41406 -0.25,-0.24219 -0.40625,-0.57813 -0.14843,-0.33594 -0.14843,-0.80469 0,-0.41406 0.15625,-0.78906 0.16406,-0.38281 0.48437,-0.66406 0.32031,-0.28906 0.79688,-0.46094 0.48437,-0.17187 1.125,-0.17187 0.28125,0 0.5625,0.0469 0.28125,0.0469 0.50781,0.11719 0.22656,0.0703 0.38281,0.15625 0.16406,0.0781 0.24219,0.14062 0.0859,0.0625 0.10937,0.10938 0.0312,0.0469 0.0391,0.10937 0.0156,0.0547 0.0234,0.14063 0.0156,0.0859 0.0156,0.21094 0,0.13281 -0.0156,0.23437 -0.008,0.0937 -0.0391,0.15625 -0.0234,0.0625 -0.0625,0.0937 -0.0391,0.0234 -0.0859,0.0234 -0.0703,0 -0.20312,-0.0859 -0.13281,-0.0859 -0.34375,-0.17969 -0.21094,-0.10156 -0.5,-0.1875 -0.28125,-0.0859 -0.64844,-0.0859 -0.32812,0 -0.57812,0.0781 -0.25,0.0703 -0.41407,0.21094 -0.15625,0.13281 -0.24218,0.32031 -0.0781,0.1875 -0.0781,0.40625 0,0.30469 0.15625,0.51563 0.15625,0.20312 0.40625,0.35937 0.25,0.15625 0.57031,0.28125 0.32032,0.125 0.64844,0.25781 0.33594,0.13282 0.65625,0.29688 0.32813,0.16406 0.57813,0.39844 0.25,0.23437 0.39843,0.5625 0.15625,0.32812 0.15625,0.78125 z"
       style="text-align:center;text-anchor:middle;fill:#1a1a1a"
       id="path920" />
    <path
       d="m 211.93658,164.16283 q 0,0.30468 -0.15625,0.4375 -0.14843,0.125 -0.34375,0.125 h -4.60937 q 0,0.58593 0.11719,1.05468 0.11718,0.46875 0.39062,0.80469 0.27344,0.33594 0.71094,0.51563 0.4375,0.17968 1.07031,0.17968 0.5,0 0.89063,-0.0781 0.39062,-0.0859 0.67187,-0.1875 0.28906,-0.10156 0.46875,-0.17969 0.1875,-0.0859 0.28125,-0.0859 0.0547,0 0.0937,0.0312 0.0469,0.0234 0.0703,0.0781 0.0234,0.0547 0.0312,0.15625 0.0156,0.0937 0.0156,0.23437 0,0.10157 -0.008,0.17969 -0.008,0.0703 -0.0234,0.13281 -0.008,0.0547 -0.0391,0.10157 -0.0234,0.0469 -0.0703,0.0937 -0.0391,0.0391 -0.25,0.14062 -0.21093,0.0937 -0.54687,0.1875 -0.33594,0.0937 -0.78125,0.16406 -0.4375,0.0781 -0.9375,0.0781 -0.86719,0 -1.52344,-0.24219 -0.64844,-0.24219 -1.09375,-0.71875 -0.44531,-0.47656 -0.67187,-1.19531 -0.22657,-0.71875 -0.22657,-1.67188 0,-0.90625 0.23438,-1.625 0.23437,-0.72656 0.67187,-1.22656 0.44532,-0.50781 1.07032,-0.77344 0.625,-0.27343 1.39843,-0.27343 0.82813,0 1.40625,0.26562 0.58594,0.26563 0.96094,0.71875 0.375,0.44531 0.54688,1.05469 0.17968,0.60156 0.17968,1.28906 z m -1.29687,-0.38282 q 0.0234,-1.01562 -0.45313,-1.59375 -0.46875,-0.57812 -1.39843,-0.57812 -0.47657,0 -0.83594,0.17969 -0.35938,0.17968 -0.60156,0.47656 -0.24219,0.29687 -0.375,0.69531 -0.13282,0.39063 -0.14844,0.82031 z"
       style="text-align:center;text-anchor:middle;fill:#1a1a1a"
       id="path922" />
    <path
       d="m 215.18658,167.98314 q 0,0.0625 -0.0312,0.10937 -0.0312,0.0391 -0.10156,0.0703 -0.0703,0.0312 -0.19531,0.0469 -0.125,0.0156 -0.32031,0.0156 -0.1875,0 -0.3125,-0.0156 -0.125,-0.0156 -0.20313,-0.0469 -0.0703,-0.0312 -0.10156,-0.0703 -0.0234,-0.0469 -0.0234,-0.10937 v -10.4375 q 0,-0.0625 0.0234,-0.10938 0.0312,-0.0469 0.10156,-0.0781 0.0781,-0.0312 0.20313,-0.0469 0.125,-0.0156 0.3125,-0.0156 0.19531,0 0.32031,0.0156 0.125,0.0156 0.19531,0.0469 0.0703,0.0312 0.10156,0.0781 0.0312,0.0469 0.0312,0.10938 z"
       style="text-align:center;text-anchor:middle;fill:#1a1a1a"
       id="path924" />
    <path
       d="m 221.42096,158.06126 q 0,0.14844 -0.0156,0.24219 -0.0156,0.0859 -0.0391,0.14063 -0.0156,0.0547 -0.0469,0.0781 -0.0312,0.0156 -0.0781,0.0156 -0.0547,0 -0.14062,-0.0312 -0.0781,-0.0391 -0.19532,-0.0781 -0.11718,-0.0469 -0.28125,-0.0781 -0.15625,-0.0391 -0.36718,-0.0391 -0.28907,0 -0.49219,0.0937 -0.20313,0.0937 -0.32813,0.29688 -0.125,0.19531 -0.17968,0.51562 -0.0547,0.3125 -0.0547,0.76563 v 0.76562 h 1.57031 q 0.0625,0 0.10156,0.0312 0.0469,0.0234 0.0781,0.0937 0.0391,0.0625 0.0547,0.16407 0.0234,0.10156 0.0234,0.25 0,0.28125 -0.0703,0.40625 -0.0703,0.125 -0.1875,0.125 h -1.57031 v 6.16406 q 0,0.0625 -0.0312,0.10937 -0.0312,0.0391 -0.10938,0.0703 -0.0703,0.0312 -0.19531,0.0469 -0.125,0.0156 -0.3125,0.0156 -0.1875,0 -0.3125,-0.0156 -0.125,-0.0156 -0.20312,-0.0469 -0.0703,-0.0312 -0.10157,-0.0703 -0.0312,-0.0469 -0.0312,-0.10937 v -6.16406 h -0.99218 q -0.125,0 -0.1875,-0.125 -0.0625,-0.125 -0.0625,-0.40625 0,-0.14844 0.0156,-0.25 0.0156,-0.10157 0.0469,-0.16407 0.0312,-0.0703 0.0781,-0.0937 0.0469,-0.0312 0.10938,-0.0312 h 0.99218 v -0.72656 q 0,-0.73437 0.13282,-1.25781 0.14062,-0.53125 0.42187,-0.86719 0.28125,-0.33594 0.70313,-0.49219 0.42968,-0.16406 1.00781,-0.16406 0.27344,0 0.53125,0.0547 0.25781,0.0469 0.39844,0.10937 0.14062,0.0547 0.1875,0.10157 0.0469,0.0469 0.0781,0.125 0.0312,0.0703 0.0391,0.17968 0.0156,0.10157 0.0156,0.25 z"
       style="text-align:center;text-anchor:middle;fill:#1a1a1a"
       id="path926" />
    <path
       d="m 232.12408,167.98314 q 0,0.0625 -0.0312,0.10937 -0.0312,0.0391 -0.10156,0.0703 -0.0703,0.0312 -0.19531,0.0469 -0.125,0.0156 -0.3125,0.0156 -0.19531,0 -0.32031,-0.0156 -0.125,-0.0156 -0.19532,-0.0469 -0.0703,-0.0312 -0.10156,-0.0703 -0.0312,-0.0469 -0.0312,-0.10937 v -4.11719 q 0,-0.60156 -0.0937,-0.96875 -0.0937,-0.36719 -0.27344,-0.63281 -0.17968,-0.26563 -0.46875,-0.40625 -0.28125,-0.14063 -0.65625,-0.14063 -0.48437,0 -0.96875,0.34375 -0.48437,0.34375 -1.01562,1.00782 v 4.91406 q 0,0.0625 -0.0312,0.10937 -0.0312,0.0391 -0.10156,0.0703 -0.0703,0.0312 -0.19532,0.0469 -0.125,0.0156 -0.32031,0.0156 -0.1875,0 -0.3125,-0.0156 -0.125,-0.0156 -0.20312,-0.0469 -0.0703,-0.0312 -0.10157,-0.0703 -0.0234,-0.0469 -0.0234,-0.10937 v -7.03125 q 0,-0.0625 0.0234,-0.10156 0.0234,-0.0469 0.0937,-0.0781 0.0703,-0.0391 0.17969,-0.0469 0.10938,-0.0156 0.28906,-0.0156 0.17188,0 0.28125,0.0156 0.11719,0.008 0.17969,0.0469 0.0625,0.0312 0.0859,0.0781 0.0312,0.0391 0.0312,0.10156 v 0.92969 q 0.59375,-0.66407 1.17969,-0.96875 0.59375,-0.3125 1.19531,-0.3125 0.70312,0 1.17969,0.24218 0.48437,0.23438 0.78125,0.63282 0.29687,0.39843 0.42187,0.9375 0.13281,0.53125 0.13281,1.28125 z"
       style="text-align:center;text-anchor:middle;fill:#1a1a1a"
       id="path928" />
    <path
       d="m 235.76471,167.98314 q 0,0.0625 -0.0312,0.10937 -0.0312,0.0391 -0.10156,0.0703 -0.0703,0.0312 -0.19532,0.0469 -0.125,0.0156 -0.32031,0.0156 -0.1875,0 -0.3125,-0.0156 -0.125,-0.0156 -0.20312,-0.0469 -0.0703,-0.0312 -0.10157,-0.0703 -0.0234,-0.0469 -0.0234,-0.10937 v -7.03125 q 0,-0.0547 0.0234,-0.10156 0.0312,-0.0469 0.10157,-0.0781 0.0781,-0.0312 0.20312,-0.0469 0.125,-0.0156 0.3125,-0.0156 0.19531,0 0.32031,0.0156 0.125,0.0156 0.19532,0.0469 0.0703,0.0312 0.10156,0.0781 0.0312,0.0469 0.0312,0.10156 z m 0.14844,-9.40625 q 0,0.45312 -0.17188,0.61719 -0.17187,0.16406 -0.63281,0.16406 -0.45313,0 -0.625,-0.15625 -0.16406,-0.16406 -0.16406,-0.60938 0,-0.45312 0.17187,-0.61718 0.17188,-0.16407 0.63281,-0.16407 0.45313,0 0.61719,0.16407 0.17188,0.15625 0.17188,0.60156 z"
       style="text-align:center;text-anchor:middle;fill:#1a1a1a"
       id="path930" />
    <path
       d="m 244.02252,161.2722 q 0,0.27344 -0.0781,0.39844 -0.0703,0.11719 -0.1875,0.11719 h -1.00782 q 0.27344,0.28125 0.38282,0.625 0.10937,0.33593 0.10937,0.70312 0,0.60938 -0.19531,1.07813 -0.19531,0.46875 -0.5625,0.79687 -0.35938,0.32031 -0.85938,0.49219 -0.5,0.17187 -1.10937,0.17187 -0.42969,0 -0.82031,-0.10937 -0.38282,-0.11719 -0.59375,-0.28906 -0.14063,0.14062 -0.23438,0.32031 -0.0859,0.17969 -0.0859,0.41406 0,0.27344 0.25,0.45313 0.25782,0.17968 0.67969,0.19531 l 1.83594,0.0781 q 0.52344,0.0156 0.96094,0.14844 0.4375,0.125 0.75781,0.36719 0.32031,0.23437 0.5,0.58594 0.17969,0.34375 0.17969,0.80468 0,0.48438 -0.20313,0.92188 -0.20312,0.4375 -0.625,0.76562 -0.41406,0.33594 -1.0625,0.52344 -0.64844,0.19531 -1.53125,0.19531 -0.85156,0 -1.45312,-0.14843 -0.59375,-0.14063 -0.97657,-0.39063 -0.38281,-0.25 -0.55468,-0.60156 -0.17188,-0.34375 -0.17188,-0.75 0,-0.25781 0.0625,-0.5 0.0625,-0.24219 0.1875,-0.46094 0.13281,-0.21875 0.32031,-0.41406 0.19532,-0.20313 0.44532,-0.39844 -0.38282,-0.19531 -0.57032,-0.49219 -0.17968,-0.29687 -0.17968,-0.64062 0,-0.47656 0.19531,-0.85156 0.19531,-0.375 0.48437,-0.67188 -0.24218,-0.28906 -0.38281,-0.64844 -0.14062,-0.36718 -0.14062,-0.88281 0,-0.60156 0.20312,-1.07812 0.20313,-0.47657 0.5625,-0.80469 0.35938,-0.32813 0.85938,-0.5 0.50781,-0.17969 1.10156,-0.17969 0.32031,0 0.59375,0.0391 0.28125,0.0312 0.52344,0.0937 h 2.125 q 0.13281,0 0.19531,0.13282 0.0703,0.125 0.0703,0.39062 z m -2.01562,1.85156 q 0,-0.71875 -0.39844,-1.11718 -0.39063,-0.40625 -1.11719,-0.40625 -0.375,0 -0.65625,0.125 -0.27344,0.125 -0.46094,0.34375 -0.17968,0.21875 -0.27343,0.50781 -0.0859,0.28125 -0.0859,0.59375 0,0.69531 0.39062,1.09375 0.39844,0.39844 1.10938,0.39844 0.38281,0 0.66406,-0.11719 0.28125,-0.125 0.46094,-0.33594 0.1875,-0.21875 0.27344,-0.5 0.0937,-0.28125 0.0937,-0.58594 z m 0.64843,5.57032 q 0,-0.45313 -0.375,-0.69532 -0.36718,-0.25 -1,-0.26562 l -1.82031,-0.0625 q -0.25,0.19531 -0.41406,0.375 -0.15625,0.17187 -0.25,0.32812 -0.0937,0.16407 -0.13281,0.32032 -0.0312,0.15625 -0.0312,0.32031 0,0.50781 0.51562,0.76562 0.51563,0.26563 1.4375,0.26563 0.58594,0 0.97656,-0.11719 0.39844,-0.10937 0.64063,-0.29687 0.24219,-0.1875 0.34375,-0.42969 0.10937,-0.24219 0.10937,-0.50781 z"
       style="text-align:center;text-anchor:middle;fill:#1a1a1a"
       id="path932" />
    <path
       d="m 251.73346,167.98314 q 0,0.0625 -0.0312,0.10937 -0.0312,0.0391 -0.10156,0.0703 -0.0703,0.0312 -0.19532,0.0469 -0.125,0.0156 -0.3125,0.0156 -0.19531,0 -0.32031,-0.0156 -0.125,-0.0156 -0.19531,-0.0469 -0.0703,-0.0312 -0.10156,-0.0703 -0.0312,-0.0469 -0.0312,-0.10937 v -4.11719 q 0,-0.60156 -0.0937,-0.96875 -0.0937,-0.36719 -0.27344,-0.63281 -0.17969,-0.26563 -0.46875,-0.40625 -0.28125,-0.14063 -0.65625,-0.14063 -0.48438,0 -0.96875,0.34375 -0.48438,0.34375 -1.01563,1.00782 v 4.91406 q 0,0.0625 -0.0312,0.10937 -0.0312,0.0391 -0.10156,0.0703 -0.0703,0.0312 -0.19531,0.0469 -0.125,0.0156 -0.32031,0.0156 -0.1875,0 -0.3125,-0.0156 -0.125,-0.0156 -0.20313,-0.0469 -0.0703,-0.0312 -0.10156,-0.0703 -0.0234,-0.0469 -0.0234,-0.10937 v -10.4375 q 0,-0.0625 0.0234,-0.10938 0.0312,-0.0469 0.10156,-0.0781 0.0781,-0.0312 0.20313,-0.0469 0.125,-0.0156 0.3125,-0.0156 0.19531,0 0.32031,0.0156 0.125,0.0156 0.19531,0.0469 0.0703,0.0312 0.10156,0.0781 0.0312,0.0469 0.0312,0.10938 v 4.21094 q 0.55469,-0.58594 1.11719,-0.86719 0.5625,-0.28906 1.13281,-0.28906 0.70313,0 1.17969,0.24218 0.48438,0.23438 0.78125,0.63282 0.29688,0.39843 0.42188,0.9375 0.13281,0.53125 0.13281,1.28906 z"
       style="text-align:center;text-anchor:middle;fill:#1a1a1a"
       id="path934" />
    <path
       d="m 257.59283,167.46751 q 0,0.22657 -0.0312,0.35938 -0.0312,0.13281 -0.0937,0.19531 -0.0625,0.0625 -0.1875,0.11719 -0.125,0.0547 -0.28906,0.0859 -0.15625,0.0391 -0.33594,0.0625 -0.17968,0.0234 -0.35937,0.0234 -0.54688,0 -0.9375,-0.14062 -0.39063,-0.14844 -0.64063,-0.4375 -0.25,-0.29688 -0.36718,-0.74219 -0.10938,-0.45312 -0.10938,-1.0625 v -4.10937 h -0.98437 q -0.11719,0 -0.1875,-0.125 -0.0703,-0.125 -0.0703,-0.40625 0,-0.14844 0.0156,-0.25 0.0234,-0.10157 0.0547,-0.16407 0.0312,-0.0703 0.0781,-0.0937 0.0547,-0.0312 0.11719,-0.0312 h 0.97656 v -1.67187 q 0,-0.0547 0.0234,-0.10156 0.0312,-0.0469 0.10156,-0.0781 0.0781,-0.0391 0.20313,-0.0547 0.125,-0.0156 0.3125,-0.0156 0.19531,0 0.32031,0.0156 0.125,0.0156 0.19531,0.0547 0.0703,0.0312 0.10156,0.0781 0.0312,0.0469 0.0312,0.10156 v 1.67187 h 1.80469 q 0.0625,0 0.10938,0.0312 0.0469,0.0234 0.0781,0.0937 0.0391,0.0625 0.0547,0.16407 0.0156,0.10156 0.0156,0.25 0,0.28125 -0.0703,0.40625 -0.0703,0.125 -0.1875,0.125 h -1.80469 v 3.92187 q 0,0.72656 0.21094,1.10156 0.21875,0.36719 0.77344,0.36719 0.17969,0 0.32031,-0.0312 0.14063,-0.0391 0.25,-0.0781 0.10938,-0.0391 0.1875,-0.0703 0.0781,-0.0391 0.14063,-0.0391 0.0391,0 0.0703,0.0234 0.0391,0.0156 0.0547,0.0703 0.0234,0.0547 0.0391,0.14844 0.0156,0.0937 0.0156,0.23437 z"
       style="text-align:center;text-anchor:middle;fill:#1a1a1a"
       id="path936" />
    <path
       d="m 268.67877,160.93626 q 0,0.0312 -0.008,0.0703 0,0.0312 -0.008,0.0703 -0.008,0.0391 -0.0234,0.0859 -0.008,0.0469 -0.0234,0.10156 l -2.39844,6.67969 q -0.0312,0.0859 -0.0859,0.14062 -0.0469,0.0547 -0.14844,0.0859 -0.10156,0.0312 -0.25781,0.0391 -0.15625,0.0156 -0.39063,0.0156 -0.23437,0 -0.39062,-0.0156 -0.15625,-0.0156 -0.25782,-0.0469 -0.0937,-0.0312 -0.14843,-0.0859 -0.0547,-0.0547 -0.0859,-0.13281 l -2.39063,-6.67969 q -0.0312,-0.0937 -0.0547,-0.16406 -0.0156,-0.0703 -0.0234,-0.10157 0,-0.0391 0,-0.0625 0,-0.0625 0.0312,-0.10937 0.0312,-0.0469 0.10156,-0.0703 0.0781,-0.0312 0.19531,-0.0391 0.125,-0.008 0.30469,-0.008 0.22656,0 0.35938,0.0156 0.14062,0.008 0.21093,0.0391 0.0781,0.0312 0.10938,0.0781 0.0391,0.0469 0.0703,0.11719 l 1.98438,5.79688 0.0312,0.0937 0.0234,-0.0937 1.96094,-5.79688 q 0.0156,-0.0703 0.0547,-0.11719 0.0391,-0.0469 0.10937,-0.0781 0.0781,-0.0312 0.20313,-0.0391 0.13281,-0.0156 0.34375,-0.0156 0.17969,0 0.29687,0.008 0.11719,0.008 0.17969,0.0391 0.0703,0.0312 0.0937,0.0781 0.0312,0.0391 0.0312,0.10156 z"
       style="text-align:center;text-anchor:middle;fill:#1a1a1a"
       id="path938" />
    <path
       d="m 271.42877,167.98314 q 0,0.0625 -0.0312,0.10937 -0.0312,0.0391 -0.10156,0.0703 -0.0703,0.0312 -0.19531,0.0469 -0.125,0.0156 -0.32032,0.0156 -0.1875,0 -0.3125,-0.0156 -0.125,-0.0156 -0.20312,-0.0469 -0.0703,-0.0312 -0.10156,-0.0703 -0.0234,-0.0469 -0.0234,-0.10937 v -7.03125 q 0,-0.0547 0.0234,-0.10156 0.0312,-0.0469 0.10156,-0.0781 0.0781,-0.0312 0.20312,-0.0469 0.125,-0.0156 0.3125,-0.0156 0.19532,0 0.32032,0.0156 0.125,0.0156 0.19531,0.0469 0.0703,0.0312 0.10156,0.0781 0.0312,0.0469 0.0312,0.10156 z m 0.14844,-9.40625 q 0,0.45312 -0.17188,0.61719 -0.17187,0.16406 -0.63281,0.16406 -0.45312,0 -0.625,-0.15625 -0.16406,-0.16406 -0.16406,-0.60938 0,-0.45312 0.17187,-0.61718 0.17188,-0.16407 0.63282,-0.16407 0.45312,0 0.61718,0.16407 0.17188,0.15625 0.17188,0.60156 z"
       style="text-align:center;text-anchor:middle;fill:#1a1a1a"
       id="path940" />
    <path
       d="m 278.22565,166.06908 q 0,0.53906 -0.20313,0.96093 -0.19531,0.42188 -0.5625,0.71094 -0.36719,0.28906 -0.875,0.4375 -0.50781,0.14844 -1.11719,0.14844 -0.375,0 -0.71875,-0.0625 -0.33593,-0.0547 -0.60937,-0.14063 -0.26563,-0.0937 -0.45313,-0.1875 -0.1875,-0.10156 -0.27343,-0.17968 -0.0859,-0.0781 -0.125,-0.21875 -0.0391,-0.14063 -0.0391,-0.38282 0,-0.14843 0.0156,-0.25 0.0156,-0.10156 0.0391,-0.16406 0.0234,-0.0625 0.0625,-0.0859 0.0469,-0.0312 0.10156,-0.0312 0.0859,0 0.25,0.10938 0.17188,0.10156 0.41407,0.22656 0.25,0.125 0.58593,0.23438 0.33594,0.10156 0.77344,0.10156 0.32813,0 0.59375,-0.0703 0.26563,-0.0703 0.46094,-0.20313 0.19531,-0.14062 0.29687,-0.35156 0.10938,-0.21094 0.10938,-0.5 0,-0.29688 -0.15625,-0.5 -0.14844,-0.20313 -0.39844,-0.35938 -0.25,-0.15625 -0.5625,-0.27343 -0.3125,-0.125 -0.64844,-0.25782 -0.32812,-0.13281 -0.64843,-0.29687 -0.3125,-0.17188 -0.5625,-0.41406 -0.25,-0.24219 -0.40625,-0.57813 -0.14844,-0.33594 -0.14844,-0.80469 0,-0.41406 0.15625,-0.78906 0.16406,-0.38281 0.48437,-0.66406 0.32032,-0.28906 0.79688,-0.46094 0.48437,-0.17187 1.125,-0.17187 0.28125,0 0.5625,0.0469 0.28125,0.0469 0.50781,0.11719 0.22656,0.0703 0.38281,0.15625 0.16407,0.0781 0.24219,0.14062 0.0859,0.0625 0.10938,0.10938 0.0312,0.0469 0.0391,0.10937 0.0156,0.0547 0.0234,0.14063 0.0156,0.0859 0.0156,0.21094 0,0.13281 -0.0156,0.23437 -0.008,0.0937 -0.0391,0.15625 -0.0234,0.0625 -0.0625,0.0937 -0.0391,0.0234 -0.0859,0.0234 -0.0703,0 -0.20313,-0.0859 -0.13281,-0.0859 -0.34375,-0.17969 -0.21094,-0.10156 -0.5,-0.1875 -0.28125,-0.0859 -0.64844,-0.0859 -0.32812,0 -0.57812,0.0781 -0.25,0.0703 -0.41406,0.21094 -0.15625,0.13281 -0.24219,0.32031 -0.0781,0.1875 -0.0781,0.40625 0,0.30469 0.15625,0.51563 0.15625,0.20312 0.40625,0.35937 0.25,0.15625 0.57032,0.28125 0.32031,0.125 0.64843,0.25781 0.33594,0.13282 0.65625,0.29688 0.32813,0.16406 0.57813,0.39844 0.25,0.23437 0.39844,0.5625 0.15625,0.32812 0.15625,0.78125 z"
       style="text-align:center;text-anchor:middle;fill:#1a1a1a"
       id="path942" />
    <path
       d="m 281.35846,167.98314 q 0,0.0625 -0.0312,0.10937 -0.0312,0.0391 -0.10156,0.0703 -0.0703,0.0312 -0.19532,0.0469 -0.125,0.0156 -0.32031,0.0156 -0.1875,0 -0.3125,-0.0156 -0.125,-0.0156 -0.20312,-0.0469 -0.0703,-0.0312 -0.10157,-0.0703 -0.0234,-0.0469 -0.0234,-0.10937 v -7.03125 q 0,-0.0547 0.0234,-0.10156 0.0312,-0.0469 0.10157,-0.0781 0.0781,-0.0312 0.20312,-0.0469 0.125,-0.0156 0.3125,-0.0156 0.19531,0 0.32031,0.0156 0.125,0.0156 0.19532,0.0469 0.0703,0.0312 0.10156,0.0781 0.0312,0.0469 0.0312,0.10156 z m 0.14844,-9.40625 q 0,0.45312 -0.17188,0.61719 -0.17187,0.16406 -0.63281,0.16406 -0.45313,0 -0.625,-0.15625 -0.16406,-0.16406 -0.16406,-0.60938 0,-0.45312 0.17187,-0.61718 0.17188,-0.16407 0.63281,-0.16407 0.45313,0 0.61719,0.16407 0.17188,0.15625 0.17188,0.60156 z"
       style="text-align:center;text-anchor:middle;fill:#1a1a1a"
       id="path944" />
    <path
       d="m 290.28033,164.38939 q 0,0.85937 -0.22656,1.58594 -0.22656,0.71875 -0.67969,1.24218 -0.44531,0.52344 -1.125,0.82032 -0.67187,0.28906 -1.5625,0.28906 -0.86718,0 -1.51562,-0.25781 -0.64063,-0.25782 -1.07031,-0.75 -0.42969,-0.49219 -0.64063,-1.19532 -0.21094,-0.70312 -0.21094,-1.59375 0,-0.85937 0.21875,-1.57812 0.22657,-0.72656 0.67188,-1.25 0.45312,-0.52344 1.125,-0.8125 0.67187,-0.28906 1.57031,-0.28906 0.86719,0 1.50781,0.25781 0.64844,0.25781 1.07813,0.75 0.42969,0.49219 0.64062,1.19531 0.21875,0.70313 0.21875,1.58594 z m -1.35937,0.0859 q 0,-0.57032 -0.10938,-1.07813 -0.10156,-0.50781 -0.34375,-0.89062 -0.24218,-0.38282 -0.65625,-0.60157 -0.41406,-0.22656 -1.03125,-0.22656 -0.57031,0 -0.98437,0.20313 -0.40625,0.20312 -0.67188,0.57812 -0.26562,0.36719 -0.39843,0.875 -0.125,0.50781 -0.125,1.10938 0,0.57812 0.10156,1.08593 0.10937,0.50782 0.35156,0.89063 0.25,0.375 0.66406,0.60156 0.41407,0.21875 1.03125,0.21875 0.5625,0 0.97657,-0.20312 0.41406,-0.20313 0.67968,-0.57032 0.26563,-0.36718 0.39063,-0.875 0.125,-0.50781 0.125,-1.11718 z"
       style="text-align:center;text-anchor:middle;fill:#1a1a1a"
       id="path946" />
    <path
       d="m 298.23346,167.98314 q 0,0.0625 -0.0312,0.10937 -0.0312,0.0391 -0.10156,0.0703 -0.0703,0.0312 -0.19532,0.0469 -0.125,0.0156 -0.3125,0.0156 -0.19531,0 -0.32031,-0.0156 -0.125,-0.0156 -0.19531,-0.0469 -0.0703,-0.0312 -0.10156,-0.0703 -0.0312,-0.0469 -0.0312,-0.10937 v -4.11719 q 0,-0.60156 -0.0937,-0.96875 -0.0937,-0.36719 -0.27344,-0.63281 -0.17969,-0.26563 -0.46875,-0.40625 -0.28125,-0.14063 -0.65625,-0.14063 -0.48438,0 -0.96875,0.34375 -0.48438,0.34375 -1.01563,1.00782 v 4.91406 q 0,0.0625 -0.0312,0.10937 -0.0312,0.0391 -0.10156,0.0703 -0.0703,0.0312 -0.19531,0.0469 -0.125,0.0156 -0.32031,0.0156 -0.1875,0 -0.3125,-0.0156 -0.125,-0.0156 -0.20313,-0.0469 -0.0703,-0.0312 -0.10156,-0.0703 -0.0234,-0.0469 -0.0234,-0.10937 v -7.03125 q 0,-0.0625 0.0234,-0.10156 0.0234,-0.0469 0.0937,-0.0781 0.0703,-0.0391 0.17969,-0.0469 0.10937,-0.0156 0.28906,-0.0156 0.17187,0 0.28125,0.0156 0.11719,0.008 0.17969,0.0469 0.0625,0.0312 0.0859,0.0781 0.0312,0.0391 0.0312,0.10156 v 0.92969 q 0.59375,-0.66407 1.17969,-0.96875 0.59375,-0.3125 1.19531,-0.3125 0.70313,0 1.17969,0.24218 0.48438,0.23438 0.78125,0.63282 0.29688,0.39843 0.42188,0.9375 0.13281,0.53125 0.13281,1.28125 z"
       style="text-align:center;text-anchor:middle;fill:#1a1a1a"
       id="path948" />
  </g>
</svg>
